<svg xmlns="http://www.w3.org/2000/svg" width="80" height="55.726" viewBox="0 0 125.764 55.726">
    <path
        id="Path_2796"
        data-name="Path 2796"
        d="M-1809.1-464.888c-.646,0-1.3-.008-1.961-.025-.048,0-.1,0-.147,0a94.7,94.7,0,0,1-18.272-2.337,3.485,3.485,0,0,1-2.544-4.22,3.483,3.483,0,0,1,4.22-2.544,88.626,88.626,0,0,0,12.878,1.93c-.705-18.376,6.817-24.788,13.292-26.924,10.141-3.347,17.6,2.736,20.232,9.805,2.787,7.474.571,17.14-9.058,21.155C-1795.51-465.949-1801.772-464.888-1809.1-464.888Zm12.984-28.078a10.623,10.623,0,0,0-3.334.573c-6.176,2.037-9.032,8.943-8.492,20.527a40.612,40.612,0,0,0,14.8-2.618c5.853-2.441,6.835-7.93,5.209-12.287C-1789.1-489.893-1791.852-492.966-1796.121-492.966Z"
        transform="translate(1832.132 499.957)"
        fill="#002b7f"
    />
    <g id="Group_786" data-name="Group 786" transform="translate(17.501 22.823)">
        <path
        id="Path_2797"
        data-name="Path 2797"
        d="M-1748.9-427.757q-1.677,0-3.365-.071c-19.692-.827-37.976-9.043-48.91-21.976a3.485,3.485,0,0,1,.411-4.911,3.484,3.484,0,0,1,4.91.412c9.7,11.471,26.1,18.766,43.881,19.512,18.945.794,36.509-5.752,46.99-17.517a37.858,37.858,0,0,0,4.725-6.576,3.484,3.484,0,0,1,4.745-1.327,3.484,3.484,0,0,1,1.327,4.746,44.739,44.739,0,0,1-5.595,7.793C-1711-435.077-1729.176-427.757-1748.9-427.757Z"
        transform="translate(1801.998 460.659)"
        fill="#002b7f"
        />
    </g>
    <g id="Group_787" data-name="Group 787" transform="translate(64.208 22.824)">
        <circle
        id="Ellipse_183"
        data-name="Ellipse 183"
        cx="3.608"
        cy="3.608"
        r="3.608"
        transform="translate(0)"
        fill="#002b7f"
        />
    </g>
    <g id="Group_788" data-name="Group 788" transform="translate(73.941 23.107)">
        <circle
        id="Ellipse_184"
        data-name="Ellipse 184"
        cx="3.608"
        cy="3.608"
        r="3.608"
        transform="translate(0)"
        fill="#002b7f"
        />
    </g>
</svg>