<svg xmlns="http://www.w3.org/2000/svg" width="22.012" height="31.386" viewBox="0 0 22.012 31.386">
  <g id="exam" transform="translate(-76.16)">
    <path id="Path_3145" data-name="Path 3145" d="M93.349,5.747a.923.923,0,0,1-.923-.923V0H76.96a.8.8,0,0,0-.8.8V30.586a.8.8,0,0,0,.8.8H97.372a.8.8,0,0,0,.8-.8V5.747Zm-10.56,6.035,3.536-7.824a.924.924,0,0,1,1.683,0l3.536,7.824a.923.923,0,0,1-1.683.76l-.806-1.782H85.277l-.806,1.782a.923.923,0,0,1-1.683-.76Zm3.085,14.864H80.52a.923.923,0,1,1,0-1.846h5.354a.923.923,0,1,1,0,1.846Zm0-7.1H80.52a.923.923,0,1,1,0-1.846h5.354a.923.923,0,1,1,0,1.846Zm8.592,5.745L92.3,27.461a.924.924,0,0,1-1.306,0L89.7,26.168A.923.923,0,1,1,91,24.863l.639.639,1.516-1.516a.923.923,0,0,1,1.306,1.305Zm0-7.885L92.3,19.576a.924.924,0,0,1-1.306,0L89.7,18.284A.923.923,0,1,1,91,16.978l.639.639L93.16,16.1a.923.923,0,0,1,1.306,1.305Z" fill="#78aaeb"/>
    <path id="Path_3146" data-name="Path 3146" d="M238.915,106.92l-1.055,2.334h2.11Z" transform="translate(-151.749 -100.34)" fill="#78aaeb"/>
    <path id="Path_3147" data-name="Path 3147" d="M370.46,21.21v2.6h2.595Z" transform="translate(-276.188 -19.905)" fill="#78aaeb"/>
  </g>
</svg>
