<svg xmlns="http://www.w3.org/2000/svg" width="30.753" height="30.337" viewBox="0 0 30.753 30.337">
  <g id="atomic" transform="translate(0.5 0.5)">
    <g id="Group_444" data-name="Group 444" transform="translate(0 0)">
      <g id="Group_441" data-name="Group 441" transform="translate(11.763 11.504)">
        <g id="Group_440" data-name="Group 440" transform="translate(0 0)">
          <path id="Path_2425" data-name="Path 2425" d="M207.3,201.258a3.81,3.81,0,1,0,3.81,3.81A3.814,3.814,0,0,0,207.3,201.258Zm0,6.178a2.368,2.368,0,1,1,2.368-2.368A2.371,2.371,0,0,1,207.3,207.436Z" transform="translate(-203.494 -201.258)" fill="#fff" stroke="#fff" stroke-width="1"/>
        </g>
      </g>
      <g id="Group_443" data-name="Group 443" transform="translate(0 0)">
        <g id="Group_442" data-name="Group 442">
          <path id="Path_2426" data-name="Path 2426" d="M29.5,10.966a7.181,7.181,0,0,0-.932-5.111A2.561,2.561,0,0,0,24,3.541a16.071,16.071,0,0,0-8.429,2.534C10.349,3.056,5.62,2.693,3.167,5.147A6.067,6.067,0,0,0,1.551,9.582,2.562,2.562,0,0,0,2.562,14.5h.044a22.853,22.853,0,0,0,1.487,3.056C1.075,22.776.713,27.505,3.167,29.959A6.052,6.052,0,0,0,7.59,31.576a16.6,16.6,0,0,0,7.982-2.545,16.6,16.6,0,0,0,7.982,2.545,6.055,6.055,0,0,0,4.424-1.617c2.454-2.454,2.091-7.183-.929-12.406A18.585,18.585,0,0,0,29.5,10.966ZM26.231,3.681A1.121,1.121,0,1,1,25.11,4.8,1.122,1.122,0,0,1,26.231,3.681ZM23.675,4.972a2.561,2.561,0,0,0,3.9,2.013,6.127,6.127,0,0,1,.5,3.787,16.4,16.4,0,0,1-1.888,5.377A32.409,32.409,0,0,0,22.03,11.1a32.435,32.435,0,0,0-5.055-4.152A14.309,14.309,0,0,1,23.675,4.972ZM2.562,13.057a1.121,1.121,0,1,1,1.121-1.121A1.122,1.122,0,0,1,2.562,13.057Zm1.425,1.008a2.561,2.561,0,0,0-.994-4.654A4.592,4.592,0,0,1,4.186,6.167c1.843-1.844,5.689-1.52,9.982.777a33.534,33.534,0,0,0-9.205,9.206A20.71,20.71,0,0,1,3.987,14.065Zm.2,14.875c-1.844-1.843-1.52-5.689.777-9.982a32.43,32.43,0,0,0,4.152,5.053,32.437,32.437,0,0,0,5.053,4.152C9.875,30.459,6.029,30.783,4.186,28.939Zm5.948-5.948a30.561,30.561,0,0,1-4.36-5.438,31.847,31.847,0,0,1,9.8-9.8,30.566,30.566,0,0,1,5.438,4.36,30.528,30.528,0,0,1,4.359,5.438,30.527,30.527,0,0,1-4.359,5.438,30.563,30.563,0,0,1-5.438,4.36A30.561,30.561,0,0,1,10.134,22.991ZM26.96,28.939c-1.844,1.844-5.69,1.52-9.983-.777a32.43,32.43,0,0,0,5.053-4.152,32.4,32.4,0,0,0,4.151-5.053C28.478,23.25,28.8,27.1,26.96,28.939Z" transform="translate(0 -2.239)" fill="#fff" stroke="#fff" stroke-width="1"/>
        </g>
      </g>
    </g>
  </g>
</svg>
