<svg version="1.1" width="30" id="Layer_1" xmlns="http://www.w3.org/2000/svg" xmlns:xlink="http://www.w3.org/1999/xlink" x="0px" y="0px" viewBox="0 0 64 64" style="enable-background:new 0 0 64 64;" xml:space="preserve">
<style type="text/css">.st0{ fill:#66A99A; } width: 30px;</style>
<g id="lock" transform="translate(-64)">
  <g id="Group_215" transform="translate(64)">
    <path
      id="Path_9"
      class="st0"
      d="M50.71,25.37h-3.36v-4.49c0-8.67-7.03-15.69-15.69-15.69c-8.67,0-15.69,7.03-15.69,15.69v4.48
        H12.6c-0.62,0-1.12,0.5-1.12,1.12c0,0,0,0,0,0v28.03c0,2.47,2.01,4.48,4.48,4.48h31.39c2.47,0,4.48-2.01,4.48-4.48V26.49
        C51.83,25.87,51.33,25.37,50.71,25.37C50.71,25.37,50.71,25.37,50.71,25.37z M35.01,48.78c0.07,0.62-0.37,1.17-0.98,1.24
        c-0.04,0.01-0.09,0.01-0.13,0.01h-4.48c-0.62,0-1.12-0.5-1.12-1.12c0-0.04,0-0.09,0.01-0.13l0.72-6.36
        c-1.16-0.84-1.85-2.18-1.84-3.61c0-2.48,2.01-4.48,4.48-4.48s4.48,2.01,4.48,4.48c0,1.43-0.68,2.77-1.83,3.61L35.01,48.78z
        M40.62,25.37H22.68v-4.49c0-4.95,4.02-8.97,8.97-8.97c4.95,0,8.97,4.02,8.97,8.97L40.62,25.37z"
      ></path>
  </g>
</g>
</svg>