<?xml version="1.0" encoding="utf-8"?>
<!-- Generator: Adobe Illustrator 24.0.3, SVG Export Plug-In . SVG Version: 6.00 Build 0)  -->
<svg version="1.1" id="Layer_1" xmlns="http://www.w3.org/2000/svg" xmlns:xlink="http://www.w3.org/1999/xlink" x="0px" y="0px"
	 viewBox="0 0 641 385" style="enable-background:new 0 0 641 385;" xml:space="preserve">
<style type="text/css">
	.st0{fill:#FFFFFF;}
</style>
<g>
	<g>
		<path class="st0" d="M274.9,40.4c2.8-2.8,5-5.9,6.7-9.3c1.7-3.4,2.6-6.8,2.6-10.2c0-5.3-1.3-9.1-3.9-11.5
			c-2.6-2.4-5.8-3.6-9.5-3.6c-3.7,0-6.8,1.1-9.3,3.3c-2.5,2.2-3.7,5.6-3.7,10.1c0,2.1,0.5,4.1,1.6,5.9c1.1,1.8,2.3,3.3,3.8,4.6
			c1.5,1.3,3.1,2.3,4.7,3.1c1.6,0.8,3,1.3,4.2,1.6c-2.1,2.7-4.7,4.9-7.7,6.7c-3,1.8-6.1,2.7-9.4,2.7v6c3.6,0,7.1-0.9,10.5-2.6
			C269,45.4,272.1,43.1,274.9,40.4z M267.6,26c-2.3-1.7-3.4-3.8-3.4-6.2c0-2.4,0.7-4.3,2-5.8c1.3-1.4,2.9-2.1,4.6-2.1
			c2,0,3.7,0.7,5,2.2c1.4,1.5,2,3.6,2,6.3c0,2.7-0.8,5.6-2.3,8.7C272.5,28.8,269.8,27.7,267.6,26z"/>
	</g>
	<g>
		<path class="st0" d="M248.4,78.1c1.7,1.2,3.8,1.8,6.2,1.8c3.7,0,6.8-1,9.2-3.1c2.4-2.1,3.6-4.9,3.6-8.4c1.1,2,2.5,3.4,4.2,4.4
			c1.6,0.9,3.3,1.4,5,1.4c3.6,0,6.5-1,9-3c2.4-2,3.6-4.6,3.6-7.9c0-0.4,0-0.9-0.1-1.3c-0.1-0.4-0.2-1.1-0.4-2
			c-0.2-0.9-0.5-2.2-1-3.7c-0.4-1.6-1-3.8-1.7-6.6l-7.2,1.9c0.6,2.3,1,4.1,1.4,5.3c0.4,1.3,0.6,2.3,0.7,3c0.1,0.7,0.2,1.2,0.2,1.5
			V62c0,1.6-0.5,2.9-1.4,3.9c-0.9,1.1-2.3,1.6-4.2,1.6c-1.1,0-2.3-0.5-3.5-1.5c-1.2-1-2.1-2.5-2.7-4.5l-1.7-6.8l-7,2.1
			c0.6,2.1,1,3.8,1.4,5.1c0.4,1.3,0.6,2.2,0.7,2.9c0.1,0.6,0.2,1.1,0.2,1.4v0.6c0,1.7-0.6,3.1-1.8,4.3c-1.2,1.1-2.7,1.7-4.4,1.7
			c-1.3,0-2.4-0.6-3.3-1.7c-0.9-1.1-1.7-2.7-2.2-4.7l-1.9-6.8l-7.2,2.1l2.1,8.5C245.2,74.3,246.7,76.9,248.4,78.1z"/>
	</g>
	<g>
		<rect x="560.5" y="98.8" class="st0" width="25.1" height="34.6"/>
	</g>
	<g>
		<path class="st0" d="M606.9,286.2h-58.8h0h-3.8h-9.2c-3.7,0-7.9,0-12.4,0.1c-4.5,0.1-9,0.1-13.3,0.1h-11.2h-7.4V285
			c4.1-3.9,7.9-8.4,11.4-13.3c3.4-4.9,6.5-10,9-15.2c2.6-5.2,4.5-10.3,5.9-15.2c1.4-4.9,2.1-9.5,2.1-13.6c0-7.5-1-14.5-3.1-21
			c-2.1-6.5-5.2-12.1-9.3-16.8c-4.1-4.7-9.4-8.5-15.7-11.2c-6.3-2.8-13.6-4.1-21.9-4.1H356.9v5.3c3.5,3.5,6.8,8.1,9.9,13.7
			c3.1,5.6,6,11.8,8.7,18.5c2.8,6.7,5.4,13.6,8,20.8c2.6,7.2,5.2,14.1,7.8,20.8c2.7,6.7,5.4,12.8,8.1,18.3c2.8,5.5,5.8,9.9,9.2,13
			v1.2h-78.3h0h-11.8c-4.7,0-9.3-1-13.6-3c-4.3-2-8.1-4.7-11.2-8.1c-3.2-3.4-5.7-7.6-7.5-12.6c-1.9-4.9-2.8-10.3-2.8-16.3V98.8
			h-24.8v157.8c0,10.8-2.5,18.5-7.4,22.9c-4.9,4.4-10.7,6.6-17.4,6.6H211h0h-9.7c-9.5,0-17.2-4.1-23.3-12.4
			c-6.1-8.3-9.2-20.3-9.2-36.1c0-23.2-6.2-41.2-18.5-53.8C137.9,171.3,121,165,99.5,165c-21.5,0-38.4,6.2-50.7,18.6
			c-12.3,12.4-18.5,30.4-18.5,54.1c0,4.5,0.8,9.4,2.5,14.5c1.7,5.1,3.6,10,5.9,14.6c2.3,4.6,4.6,8.8,6.9,12.4
			c2.4,3.6,4.3,6.2,5.9,7.5c-17.9,1.8-31,7-39.3,15.8c-8.3,8.8-12.4,21.1-12.4,37.1v40.8h24.8v-41.1c0-3.7,0.7-7.4,2.1-10.9
			s3.5-6.7,6.4-9.5c2.9-2.8,6.6-4.9,11.1-6.5c4.5-1.6,10-2.4,16.3-2.4h39c14.6,0,26.9-2.7,37.1-8.1s18-13.4,23.5-24.1
			c1.4,4.5,3.4,8.7,6.1,12.6c2.7,3.8,5.8,7.2,9.5,10.2c3.6,3,7.6,5.3,12,6.9c4.3,1.7,8.8,2.5,13.3,2.5h10h0h22.4
			c8.7,0,16.9-2.1,24.7-6.2c7.8-4.1,13.9-10.6,18.5-19.5c1.4,3.5,3.5,6.8,6.5,9.9c3,3.1,6.4,5.8,10.2,8.1c3.8,2.4,8,4.2,12.4,5.6
			c4.4,1.4,8.7,2.1,12.9,2.1h11.8h0h217.8h0H632V184.2h-25.1V286.2z M130.6,274.4c-8.1,8.3-18.4,12.4-31,12.4
			c-6.3,0-12.1-1.2-17.3-3.5c-5.2-2.4-9.8-5.7-13.6-10c-3.8-4.3-6.8-9.5-9-15.5s-3.2-12.7-3.2-20c0-14.6,4-26.3,12-35
			c8-8.8,18.4-13.2,31.2-13.2s23.2,4,31.2,12c8,8,12,20,12,36.2S138.6,266.1,130.6,274.4z M478.5,266.7c-4.4,6.1-9.5,11.2-15.1,15.2
			c-5.6,4-11.4,6.1-17.3,6.1c-3.9,0-7.7-1.9-11.2-5.8c-3.5-3.8-6.9-8.8-10-14.8c-3.2-6-6.2-12.6-9-19.8c-2.9-7.2-5.6-14.1-8.1-20.7
			c-2.6-6.6-5-12.5-7.2-17.7c-2.3-5.2-4.5-8.8-6.6-10.8h70.9c10.8,0,18.3,2.6,22.3,7.7c4,5.1,6.1,11.9,6.1,20.4c0,6.3-1.3,13-4,20.2
			C486.5,253.9,482.9,260.6,478.5,266.7z"/>
	</g>
	<g>
		<rect x="611" y="98.8" class="st0" width="25.1" height="34.6"/>
	</g>
</g>
</svg>
