<?xml version="1.0" encoding="utf-8"?>
<!-- Generator: Adobe Illustrator 24.0.3, SVG Export Plug-In . SVG Version: 6.00 Build 0)  -->
<svg version="1.1" id="Layer_1" xmlns="http://www.w3.org/2000/svg" xmlns:xlink="http://www.w3.org/1999/xlink" x="0px" y="0px"
	 viewBox="0 0 1000 1000" style="enable-background:new 0 0 1000 1000;" xml:space="preserve">
<style type="text/css">
	.st0{fill:#1D1E50;}
	.st1{fill:#FFE800;}
	.st2{fill:#E50019;}
	.st3{fill:#6470B3;}
	.st4{fill:#CE0043;}
	.st5{fill:#63C9F0;}
	.st6{fill:#082375;}
	.st7{fill:#002581;}
	.st8{fill:#FFD400;}
	.st9{fill:#01B5CC;}
	.st10{fill:#FF212B;}
</style>
<g>
	<g>
		<path class="st0" d="M396.4,496.3c3-3,5.2-6.1,7.2-9.8c1.7-3.7,2.6-7.2,2.6-10.8c0-5.6-1.4-9.6-4.2-12.2c-2.8-2.6-6.1-3.8-10-3.8
			c-3.8,0-7.2,1.2-9.8,3.5s-4,5.9-4,10.7c0,2.3,0.5,4.4,1.7,6.1c1,1.9,2.4,3.5,4,4.9c1.6,1.4,3.1,2.4,4.9,3.3
			c1.7,0.9,3.1,1.4,4.4,1.7c-2.3,2.8-4.9,5.2-8,7.2s-6.5,2.8-10,2.8v6.3c3.7,0,7.5-0.9,11.2-2.6
			C390.1,501.5,393.4,499.2,396.4,496.3z M388.7,481.1c-2.4-1.7-3.7-4-3.7-6.5c0-2.6,0.7-4.5,2.1-6.1c1.4-1.6,3-2.3,4.9-2.3
			c2.1,0,3.8,0.9,5.2,2.4c1.4,1.6,2.1,3.8,2.1,6.6c0,2.8-0.9,5.9-2.4,9.3C393.8,483.9,391,482.8,388.7,481.1z"/>
	</g>
	<g>
		<path class="st0" d="M368.4,536.1c1.7,1.2,4,1.9,6.5,1.9c3.8,0,7.2-1,9.6-3.3c2.6-2.1,3.8-5.1,3.8-8.9c1.2,2.1,2.6,3.7,4.4,4.5
			c1.7,1,3.5,1.4,5.2,1.4c3.7,0,7-1,9.4-3.1c2.6-2.1,3.8-4.9,3.8-8.4c0-0.5,0-0.9-0.2-1.4c0-0.5-0.2-1.2-0.5-2.1c-0.2-1-0.5-2.3-1-4
			c-0.5-1.6-1-4-1.7-7l-7.7,2.1c0.5,2.4,1,4.4,1.4,5.6c0.3,1.4,0.7,2.4,0.9,3.1s0.2,1.2,0.2,1.6v0.7c0,1.6-0.5,3-1.4,4.2
			c-1,1-2.4,1.7-4.4,1.7c-1.2,0-2.4-0.5-3.7-1.6c-1.2-1-2.3-2.6-2.8-4.7l-1.7-7.2l-7.5,2.3c0.5,2.3,1,4,1.4,5.4
			c0.3,1.4,0.7,2.4,0.9,3c0.2,0.7,0.2,1.2,0.2,1.4v0.7c0,1.7-0.7,3.3-1.9,4.5s-2.8,1.7-4.5,1.7c-1.4,0-2.4-0.5-3.5-1.7
			c-1-1.2-1.7-2.8-2.4-4.9l-2.1-7.2l-7.7,2.3l2.3,9.1C365.1,532.1,366.5,534.8,368.4,536.1z"/>
	</g>
	<g>
		<rect x="814.8" y="528.7" class="st0" width="26.5" height="36.5"/>
	</g>
	<g>
		<path class="st0" d="M863.9,726.7h-62.2l0,0h-4h-9.6c-4,0-8.4,0-13.1,0.2c-4.7,0.2-9.4,0.2-14,0.2h-11.9h-7.9v-1.6
			c4.4-4.2,8.4-8.9,12-14c3.7-5.1,6.8-10.5,9.6-16.1c2.8-5.6,4.7-10.8,6.3-16.1c1.6-5.2,2.3-10,2.3-14.3c0-7.9-1-15.4-3.3-22.2
			c-2.3-6.8-5.4-12.7-9.8-17.8c-4.4-5.1-10-8.9-16.6-11.9c-6.6-3-14.3-4.4-23.1-4.4H600.2v5.6c3.7,3.7,7.2,8.6,10.5,14.5
			c3.1,5.9,6.3,12.4,9.3,19.6c3,7.2,5.8,14.5,8.4,22c2.8,7.7,5.4,14.8,8.2,22c2.8,7.2,5.6,13.4,8.6,19.4c3,5.8,6.1,10.5,9.6,13.8
			v1.2H455.1l0,0h-12.4c-5.1,0-9.8-1-14.3-3.1c-4.5-2.1-8.6-4.9-11.9-8.6c-3.3-3.7-5.9-8-8-13.3c-1.9-5.2-3-11-3-17.1V557.9h-26.2
			v137.6c0,11.5-2.6,19.6-7.9,24.3s-11.4,7-18.3,7h-23.9l0,0h-10.3c-10,0-18.2-4.4-24.6-13.1c-6.5-8.7-9.6-21.5-9.6-38.1
			c0-24.6-6.5-43.5-19.6-56.8c-12.9-13.3-30.9-19.9-53.6-19.9s-40.5,6.6-53.6,19.7c-12.9,13.1-19.6,32.1-19.6,57.1
			c0,4.7,0.9,10,2.6,15.4c1.7,5.4,3.8,10.5,6.3,15.4c2.4,4.9,4.9,9.3,7.3,13.1s4.5,6.5,6.3,8c-18.9,1.9-32.8,7.5-41.6,16.8
			s-13.1,22.4-13.1,39.1v43.1h26.2v-43.3c0-4,0.7-7.9,2.3-11.5c1.4-3.7,3.7-7.2,6.6-10c3-3,7-5.2,11.7-6.8
			c4.7-1.7,10.5-2.4,17.1-2.4h41.2c15.4,0,28.5-2.8,39.1-8.6c10.7-5.8,19-14.1,24.8-25.5c1.4,4.7,3.7,9.3,6.5,13.3
			c2.8,4,6.1,7.7,10,10.8c3.8,3.1,8,5.6,12.6,7.3c4.5,1.7,9.3,2.6,14,2.6h10.7l0,0h23.8c9.1,0,17.8-2.3,26-6.6
			c8.2-4.4,14.7-11.2,19.6-20.6c1.4,3.7,3.7,7.2,6.8,10.5c3.1,3.1,6.6,6.1,10.8,8.6c4,2.4,8.4,4.5,13.1,5.9
			c4.7,1.4,9.3,2.3,13.6,2.3h12.4l0,0h346.8l0,0h88.5V619.7h-26.5v107.1H863.9z M243.9,714.2c-8.6,8.7-19.4,13.1-32.8,13.1
			c-6.6,0-12.7-1.2-18.3-3.7s-10.3-6.1-14.3-10.7c-4-4.5-7.2-10.1-9.6-16.4c-2.3-6.3-3.5-13.4-3.5-21.1c0-15.4,4.2-27.8,12.6-37
			s19.4-14,33-14c13.6,0,24.4,4.2,33,12.6c8.4,8.4,12.6,21.1,12.6,38.2S252.5,705.4,243.9,714.2z M728.4,706.1
			c-4.7,6.5-10,11.9-15.9,16.1c-5.9,4.2-12,6.5-18.3,6.5c-4.2,0-8-2.1-11.9-6.1c-3.7-4-7.3-9.3-10.7-15.5c-3.3-6.3-6.5-13.3-9.6-21
			c-3-7.7-5.9-14.8-8.6-21.8c-2.8-7-5.2-13.3-7.7-18.7c-2.4-5.6-4.7-9.3-7-11.4h74.9c11.5,0,19.4,2.8,23.6,8
			c4.2,5.4,6.5,12.6,6.5,21.5c0,6.6-1.4,13.8-4.2,21.3C736.8,692.5,732.9,699.7,728.4,706.1z"/>
	</g>
	<g>
		<rect x="868.3" y="528.7" class="st0" width="26.5" height="36.5"/>
	</g>
</g>
<g>
	<path class="st0" d="M162,870.4v90.2h-21.7v-90.2h-35V850H197v20.4H162z"/>
	<path class="st0" d="M300.6,935.3h-45l-9.2,25.4h-22.9L266.1,850H291l42.1,110.6h-23.3L300.6,935.3z M262.8,915.6h30.7l-15.3-41.9
		L262.8,915.6z"/>
	<path class="st0" d="M390.6,900.7l26.6-22.7h-44.4v-18.6h71.6v17.4l-26.2,21.7c15.3,0.6,29.2,12.3,29.2,30.9
		c0,17.4-14.3,33.5-38.8,33.5c-23.5,0-37.8-15.3-39.3-32.3l20.7-4.1c0.4,10.2,7.8,17.8,18.4,17.8c10.8,0,17.2-7,17.2-15.3
		c0-9.6-7-14.9-16.6-14.9c-4.3,0-7,0.8-9.2,1.6L390.6,900.7z"/>
	<path class="st0" d="M496.9,960.6V850h21.5v90h49.3v20.7H496.9z"/>
	<path class="st0" d="M663.7,847.8c30.1,0,56.8,22.1,56.8,57.7c0,35.6-26.8,57.7-56.8,57.7c-29.9,0-56.8-22.1-56.8-57.7
		C606.9,869.6,633.7,847.8,663.7,847.8z M663.7,942c17.2,0,34.6-11.9,34.6-36.8s-17.4-36.8-34.6-36.8c-17,0-34.6,11.9-34.6,36.8
		S646.8,942,663.7,942z"/>
	<path class="st0" d="M874.3,960.6v-77.5l-31.9,77.5h-18l-31.7-76.9v76.9h-20.7V850h28.4l33.3,79.9l32.5-79.9h29.2v110.6H874.3z"/>
</g>
<g>
	<g id="Group_9" transform="translate(0 25.809)">
		<g id="Group_3" transform="translate(114.601 9.059)">
			<path id="Path_20" class="st1" d="M430,378.4c0.4-20,4.6-39.7,12.3-58.1c7.6-18.8,17.8-36.4,30.3-52.3c25.8-32.7,60-57.9,99-72.9
				c19.4-7.3,39.5-12.3,60.1-14.7c5.1-0.6,10.2-0.8,15.3-1.2c5.1-0.5,10.1-0.6,15.2-0.4l15.1,0.4c5,0.3,10,1,15,1.5
				c39.4,4.3,77.2,18.2,110.1,40.3c-39.3,4.7-75.4,6.9-109.8,12.3c-17.2,2.3-33.8,5.9-50,9.6c-15.9,4-31.6,8.9-46.9,14.7
				c-30.7,11.8-59.6,27.8-85.9,47.5C480.8,326.8,454.1,351.4,430,378.4z"/>
		</g>
		<g id="Group_4" transform="translate(112.065)">
			<path id="Path_21" class="st2" d="M423.1,341.7c-3-27.7,3.5-56,15.4-81.8c12.3-26.2,30.5-49.1,53.3-66.9
				c22.7-17.7,49-30.1,77-36.4c27.2-6.4,55.4-7,82.9-1.8c-26.3,8.6-51.3,16.6-74.7,26.9c-23,9.7-44.7,22.4-64.5,37.7
				c-19.6,15.3-36.8,33.4-51.2,53.7C446,294.4,433.2,317.4,423.1,341.7z"/>
		</g>
		<g id="Group_5" transform="translate(43.322 9.461)">
			<path id="Path_22" class="st3" d="M481.8,324.2c-15.7-21.1-33.6-40.3-53.6-57.4c-18.9-16.2-40-29.6-62.7-39.7
				c-22.9-10.1-47-17.1-71.7-21c-25.2-4.3-51.4-6-79-8c25.4-11.7,52.9-17.9,80.8-18.3c28.7-0.7,57.3,5,83.5,16.7
				c26.4,11.8,49.7,29.6,67.9,52C464.8,270.7,478,296.6,481.8,324.2z"/>
		</g>
		<g id="Group_6" transform="translate(110.517 0.862)">
			<path id="Path_23" class="st4" d="M420.3,278.3c-3.9-15.6-3.4-32,1.4-47.4c4.6-15.8,12.9-30.3,24.2-42.3c2.8-3,5.9-5.8,9-8.4
				l4.7-4l5.1-3.4c3.5-2.1,6.8-4.5,10.5-6.3c3.7-1.7,7.4-3.3,11.1-4.8c3.6-1.6,7.5-2.9,11.4-3.7l11.6-2.7c7.8-1,15.7-1.5,23.5-1.4
				c-6.8,4.2-13.8,7.2-20.4,10.7l-9.7,5.6c-1.6,0.9-3.2,1.8-4.8,2.6s-3,2.1-4.5,3c-3,2-6,4-9,5.9c-2.9,2.1-5.6,4.4-8.4,6.6l-4.2,3.2
				l-3.8,3.7c-2.6,2.3-5.1,4.7-7.5,7.3c-9.7,10.2-17.8,21.8-24.2,34.3C429.5,249.9,424.1,263.9,420.3,278.3z"/>
		</g>
		<g id="Group_7" transform="translate(77.516 7.766)">
			<path id="Path_24" class="st5" d="M446,284.8c-5.7-13.8-12.8-26.9-21.4-39.1c-8-11.6-17.6-21.9-28.5-30.8
				c-2.7-2.2-5.5-4.3-8.4-6.2l-4.2-3.1l-4.6-2.6c-3.1-1.8-6-3.7-9.2-5.4c-3.3-1.5-6.5-3-9.7-4.6c-1.6-0.7-3.2-1.7-4.9-2.4
				c-1.7-0.7-3.4-1.2-5.1-2l-10.3-4.2c-7-2.6-14.3-4.7-21.6-7.9c7.8-1.2,15.6-1.8,23.5-1.8l11.8,1.2c4,0.3,7.9,1,11.8,2.2
				c3.9,1,7.8,2.1,11.7,3.3c3.8,1.3,7.4,3.2,11.2,4.9l5.5,2.6l5.2,3.3c3.5,2.2,6.8,4.6,10,7.1c12.8,10.3,23,23.6,29.7,38.7
				C445.2,252.6,447.8,268.8,446,284.8z"/>
		</g>
		<g id="Group_8" transform="translate(0 19.359)">
			<path id="Path_25" class="st6" d="M84,282.3c7.8-7.9,16.4-14.9,25.6-21.1c9.1-6.3,18.6-12,28.4-17c19.8-10.2,40.6-18.2,62.2-23.9
				c44-11.6,89.9-13.6,134.8-6.1l16.8,3.5c5.6,1.2,11.1,2.8,16.6,4.3c5.5,1.5,10.9,3.4,16.3,5.3c5.4,2,10.9,3.6,16,6.1l15.6,7
				c5.1,2.4,10.1,5.3,15.1,8.1c9.9,5.5,19.5,11.6,28.6,18.3c36.2,27,66.2,61.1,84.6,101.3c-38.9-21-74.4-40.5-110.8-55.7
				c-18.3-7.1-36.2-14.2-54.7-19.3c-4.5-1.5-9.2-2.5-13.8-3.8s-9.2-2.5-13.9-3.4c-4.7-1-9.2-2.3-13.9-3.2l-14-2.6
				c-38.2-6.3-77-9-115.7-8C166.4,273.4,125,276.8,84,282.3z"/>
		</g>
	</g>
	<g id="Group_26" transform="translate(51.19)">
		<g id="Group_14" transform="translate(0 14.62)">
			<g id="Group_10">
				<path id="Path_26" class="st7" d="M287.2,117.5c2.6,0.4,5.1,1,7.6,1.7c2.6,0.8,4.4,3.2,4.5,5.9c0.3,2.1-0.9,4.2-2.9,5
					c-1.8,0.8-3.8,1.4-5.6,2.1c-2.5,0.8-4.7,2.3-6.3,4.3c-1.4,1.3-1.4,3.5-0.1,4.9c0.2,0.2,0.5,0.4,0.8,0.6c2,1.6,4.3,2.9,6.4,4.3
					c3.7,2.1,5.3,6.5,3.8,10.5c-0.9,3.3-2.7,6.3-5.1,8.7c-6.1,6.3-13.5,10.9-21.8,13.7c-8.5,3.1-18,0.3-23.5-6.8
					c-7.1-7.3-8.4-18.4-3.3-27.2c5.1-9.8,13.3-17.5,23.4-21.8C272,120,279.5,118,287.2,117.5z M251.8,152.2c-2.1,0-3.9,1.6-3.9,3.7
					c0,2.1,1.6,3.9,3.7,3.9c2.1,0,3.8-1.7,3.9-3.8C255.6,154,253.9,152.3,251.8,152.2L251.8,152.2z M285.2,129.7
					c2.1-0.1,3.8-1.8,3.8-3.9c0-2.1-1.7-3.9-3.8-3.9c-2.1,0-3.9,1.7-3.9,3.8c0,0.1,0,0.1,0,0.2C281.4,128,283.1,129.7,285.2,129.7
					L285.2,129.7z M270.9,133.5c2.1,0,3.8-1.7,3.9-3.8c0-2.1-1.6-3.8-3.7-3.8c0,0-0.1,0-0.1,0c-2.1,0-3.8,1.6-3.9,3.7
					C267.1,131.7,268.8,133.4,270.9,133.5L270.9,133.5z M257.5,144c2.1,0,3.8-1.6,3.8-3.6c0,0,0-0.1,0-0.1c0-2.1-1.7-3.8-3.8-3.8
					c-2.1,0-3.8,1.7-3.8,3.8c0,2,1.6,3.7,3.6,3.8C257.4,144,257.4,144,257.5,144L257.5,144z M287.8,154.7c0-1.8-1.5-3.3-3.4-3.3
					c-1.8,0-3.3,1.5-3.3,3.4c0,1.8,1.5,3.3,3.3,3.3C286.2,158,287.7,156.6,287.8,154.7L287.8,154.7z"/>
			</g>
			<g id="Group_11" transform="translate(10.655 9.129)">
				<path id="Path_27" class="st7" d="M291.8,145l3.3,1.6c-0.5,1.1-1.1,2.4-1.7,3.6c-6.3,12.8-12.6,25.6-18.8,38.4
					c-0.7,1.4-1.8,2-2.8,1.4c-1-0.5-1.3-1.7-0.8-2.7c0.1-0.1,0.1-0.2,0.2-0.3c0.2-0.3,0.3-0.6,0.5-1c4.1-8.3,8.2-16.6,12.2-25
					c2.4-5,4.9-10,7.3-15C291.4,145.8,291.6,145.4,291.8,145z"/>
			</g>
			<g id="Group_12" transform="translate(16.229 4.867)">
				<path id="Path_28" class="st7" d="M295.1,132.2l2.4,1.3c-2,4.6-3.9,9.1-5.9,13.7c-0.6,1.4-1.5,1.4-2.7,0.9
					c-1.2-0.6-1.7-1.3-1-2.6C290.3,141,292.6,136.6,295.1,132.2z"/>
			</g>
			<g id="Group_13" transform="translate(18.308 1.044)">
				<path id="Path_29" class="st7" d="M299.7,120.6c1.4,1.2,2.2,3,2.2,4.9c0.1,3.1-1,6.2-3.1,8.5c-0.8,1.2-2.5,1.6-3.7,0.8
					c-1.1-0.5-1.6-1.9-1.1-3.1c0,0,0-0.1,0.1-0.1c0.6-1.4,1.5-2.7,2.6-3.7C299,126.3,300.2,123.4,299.7,120.6z"/>
			</g>
		</g>
		<g id="Group_17" transform="translate(76.029 1.323)">
			<g id="Group_15">
				<path id="Path_30" class="st2" d="M484.1,129.8c-2.6-1-5.2-2.2-7.7-3.4c-2.1-1.2-4.1-2.6-5.8-4.3c-3.1-2.7-3.3-7.4-0.6-10.5
					c0.2-0.2,0.3-0.3,0.5-0.5c2.8-2.8,6.2-5,10-6.3c1.2-0.5,2.4-0.9,3.4-1.3c-1-3.3-2.2-6.4-2.9-9.7c-0.4-2.1-0.5-4.2-0.2-6.4
					c0.6-4,4.1-6.9,8.1-6.8c4.9-0.1,9.8,1.1,14,3.6c4.6,2.4,9.1,5.2,13.6,7.9c3.7-2.2,7.4-4.8,11.5-6.9c3.3-1.7,6.9-2.7,10.3-4.1
					c0.7-0.3,1.3-0.7,1.8-1.3c1.4-2,3.9-2.9,6.3-2.3c2.5,0.6,4.3,2.9,4.3,5.5c0,0.4,0,0.8,0.2,1.2c2,4.7,1.9,10-0.4,14.5
					c-0.5,1.5-1.2,2.9-1.8,4.5c2.4,0.9,4.8,2,7.2,3.2c2.4,1.4,4.7,3,6.7,5c2.8,2.7,2.9,7.2,0.2,10.1c0,0.1-0.1,0.1-0.2,0.2
					c-3.3,3.4-7.5,5.9-12.1,7.3c-0.6,0.2-1.1,0.4-1.9,0.7c1,1.9,1.2,4,3.7,5.1c2.8,1.4,3.9,4.7,2.5,7.5c-0.3,0.7-0.8,1.3-1.4,1.8
					c-0.7,0.7-1.3,1.5-1.6,2.5c-1,3.5-4.2,5.9-7.9,6c-5.2,0.1-10.4-1.3-14.9-3.9c-4.4-2.3-8.6-5.1-12.8-7.6
					c-3.9,2.4-7.8,4.9-11.9,7.2c-4.5,2.7-9.7,4.2-14.9,4.4c-4.6,0.3-8.6-3.1-8.9-7.7c0-0.3,0-0.7,0-1c0-4,0.9-7.9,2.5-11.5
					C483.5,131.4,483.8,130.6,484.1,129.8z M495,116.5c4.8,5,9.2,9.7,13.7,14.3c0.3,0.3,0.7,0.4,1.1,0.5c4.3,0,8.7,0,13,0
					c0.6,0,1.1-0.3,1.6-0.7c4-4.2,8-8.6,12-12.8c0.6-0.5,0.8-1.4,0.3-2c-0.1-0.1-0.2-0.2-0.3-0.3c-4-4.3-8-8.6-12-12.8
					c-0.5-0.4-1.1-0.7-1.7-0.7c-4.2-0.1-8.4-0.1-12.6-0.1c-0.5,0-0.9,0.2-1.3,0.5C504.3,106.9,499.8,111.5,495,116.5L495,116.5z
					 M514.7,93.8c-4.8-2.7-9.3-5.4-13.9-7.8c-3.3-1.8-6.9-2.8-10.7-2.9c-3.4-0.6-6.6,1.7-7.1,5.1c-0.1,0.7-0.1,1.4,0,2.1
					c0.3,4.2,1.5,8.2,3.5,11.9c7.2-1,14.2-1.9,21.1-2.8c0.4,0,0.8-0.2,1.1-0.5C510.5,97.4,512.3,95.8,514.7,93.8L514.7,93.8z
					 M539.1,83.6c-7.5,2-14.4,5.6-20.3,10.6c1.6,1.4,3.2,2.8,4.9,4.1c0.7,0.5,1.5,0.9,2.4,1c6.3,1,12.6,2,18.9,3
					c0.9,0.1,1.4,0.2,1.7-0.7c0.9-2.6,2-5.1,2.7-7.7c0.8-2.2,0.8-4.6,0-6.7C544.6,90.3,540.7,88.9,539.1,83.6L539.1,83.6z
					 M547.9,134.1c-0.4-1-0.8-1.8-1.1-2.6c-0.3-0.8-0.7-1-1.7-0.8c-5.8,1-11.6,1.9-17.5,2.8c-1.1,0-2.2,0.2-3.2,0.6
					c-2,1.4-3.8,3.2-5.8,4.9c5.7,4.5,12.2,8,19.2,10.2c2.1,0.5,4.3,0.8,6.5,0.7c2.5,0.1,4.8-1.8,5.1-4.3c-3.3-0.2-5.7-3.1-5.5-6.4
					C544.1,136.9,545.6,134.8,547.9,134.1L547.9,134.1z M486.4,130.3c-1.2,3.2-2.2,6.6-3.1,9.9c-1.4,7.6,2.3,11,9.9,9.4
					c7.6-1.9,14.7-5.5,20.7-10.5c0.1-0.1,0-0.2,0.1-0.3c-4.8-4.8-6.6-5.7-11.3-5.4c-0.1,0.2-0.2,0.3-0.3,0.5
					c-0.8,2.7-3.5,4.5-6.3,4.2c-2.8-0.3-4.4-2.3-5-5.7c-0.1-0.5-0.4-0.9-0.9-1.1C489.2,130.9,488,130.7,486.4,130.3L486.4,130.3z
					 M562.4,115.7c-0.8-1.5-1.8-2.8-3-4.1c-3.2-2.6-7-4.6-11-5.6c-0.5-0.1-1.1,0.1-1.4,0.6c-2,3-4,6.1-5.9,9.2
					c-0.2,0.5-0.2,1.1,0,1.6c1.9,3.1,3.8,6.1,5.8,9.1c0.4,0.5,0.9,0.7,1.5,0.7c3.9-1.1,7.6-3,10.9-5.5
					C561.2,120.2,562.3,118,562.4,115.7z M492.2,116.5c-2.1-3.3-4.1-6.6-6.2-9.8c-0.4-0.5-1-0.8-1.7-0.8c-3.9,1.1-7.6,3-10.9,5.5
					c-2.8,1.7-3.7,5.3-2,8.1c0.5,0.8,1.2,1.5,2,2c3.2,2.5,6.9,4.4,10.9,5.5c0.6,0.1,1.2-0.2,1.6-0.6
					C488,123.2,490.1,119.8,492.2,116.5L492.2,116.5z M539.1,118.6l-11,12.1l0.1,0.4l17.1-2.8L539.1,118.6z M545.3,104.7l-17.2-2.8
					l0,0.5l10.9,12.1L545.3,104.7z M504.7,102.4l-0.1-0.5l-17.1,2.8l6.3,9.7L504.7,102.4z M487.7,128.1c1.1,0.3,1.8,0.4,2.5,0.6
					c0.9,0.2,1.7,0.5,2.6-0.4c2.1-2.3,5.6-2.4,7.8-0.3c0.5,0.4,0.9,0.9,1.2,1.5c0.5,1.1,1.8,1.7,3,1.3l-11-12.1L487.7,128.1z
					 M516.5,95.6l-4.1,3.4h8.2L516.5,95.6z M516.5,137.4l4.1-3.4h-8.3L516.5,137.4z"/>
			</g>
			<g id="Group_16" transform="translate(9.743 7.475)">
				<path id="Path_31" class="st2" d="M506.9,99.9c5.1,0.1,9.1,4.2,9,9.3s-4.2,9.1-9.3,9c-5.1-0.1-9.1-4.2-9-9.3c0,0,0,0,0,0
					c0-5,4.1-9,9.1-9C506.7,99.9,506.8,99.9,506.9,99.9z"/>
			</g>
		</g>
		<g id="Group_20" transform="translate(25.589 0)">
			<g id="Group_18">
				<path id="Path_32" class="st8" d="M354.1,105c-0.7-0.1-1.3-0.5-1.7-1c-3-6.9-5.9-13.8-8.8-20.9c0.4-0.3,0.6-0.4,0.8-0.5
					c2.2-1.2,3-4.1,1.8-6.3c0-0.1-0.1-0.2-0.1-0.2c-1-2.3-3.6-3.3-5.9-2.3c-0.1,0-0.1,0-0.2,0.1c-7.1,2.9-14.2,5.9-21.3,9
					c-2.4,0.9-3.6,3.6-2.7,5.9c0.1,0.2,0.2,0.5,0.3,0.7c1.1,2.4,2.9,3.1,6.3,2.6c0.1,0.1,0.2,0.3,0.3,0.4c2.9,6.8,5.8,13.6,8.5,20.4
					c0.2,0.7,0,1.4-0.4,1.9c-13.2,13-13.4,34.3-0.4,47.5c1,1,2.1,2,3.2,2.9c2.4,2,5,3.5,7.9,4.6l0,0l0.6,0.2c0.5,0.2,1,0.4,1.5,0.5
					v-0.1c1.6,0.5,3.9,1.1,6.1,1.5l0,0.1c0.6,0.1,1.2,0.2,1.8,0.2c0.2,0,0.4,0,0.6,0.1c0.1,0,0.3,0,0.4,0c0.1,0,0.2,0,0.4,0
					c0.1,0,0.3,0,0.4,0l0,0c6.3,0.2,12.6-1.3,18.1-4.4c14.2-8.2,20.4-25.4,14.9-40.8C381.5,113.5,368.5,104.6,354.1,105z
					 M364.5,165.5c-3.1,0.9-6.3,1.6-9.5,2l0,0l-2.6,0.5c0,0-0.8-0.2-2-0.6c0-0.1,0-0.1,0-0.2l-2.5-0.6c-1.6-0.5-3.5-1.2-5.4-1.9
					c-14.7-6.6-21.2-23.8-14.7-38.4c1.6-3.6,4-6.9,6.9-9.6c0.7-0.6,0.9-1.7,0.4-2.4c-2.8-6.6-5.5-13.1-8.3-19.7
					c-0.5-1.2-1-2.4-1.6-3.7l16-6.7l0.9,2c3,7.1,6,14.2,8.9,21.3c0.4,1,0.9,1.6,2.1,1.5c16.1-0.8,29.8,11.6,30.6,27.7
					C384.4,149.5,376.6,161.2,364.5,165.5L364.5,165.5z"/>
			</g>
			<g id="Group_19" transform="translate(3.229 11.902)">
				<path id="Path_33" class="st8" d="M372.6,111.1c-0.7-0.9-1.6-1.5-2.7-1.7c-3.7-0.5-7.4,1-9.6,4c-3,3.6-6.8,6.5-11,8.3
					c-3.8,1.4-7.9,1.9-11.9,1.5c-4-0.3-7.8,1.3-10.5,4.2c-1.1,1-1.5,2.5-1.2,3.9c1.5,7.1,5.8,13.2,11.9,17
					c5.1,2.3,10.6,3.6,16.1,3.8c9.2-0.7,17.3-6.4,21.2-14.8C379.2,128.9,378.3,118.7,372.6,111.1z"/>
			</g>
		</g>
	</g>
	<g id="Group_28" transform="translate(102.213 2.139)">
		<g id="Group_27">
			<path id="Path_39" class="st7" d="M433.4,93.5c2.4-3.5,5.1-6.9,8-9.9c1.2-1.1,2.2-2.4,3.1-3.8c2.9,0.1,5.4,2,6.4,4.7
				c1.7-0.9,3.1-2.5,3.7-4.3c2.6,1.2,4.6,3.3,5.9,5.8c0.6,3.3,0.4,6.6-0.7,9.8c1.6,12.5,2.4,25.1,2.2,37.6
				c-4,7.4-8.7,14.4-14.1,20.9c5.8-1.2,9.7-9.6,9.7-9.6s-4.4,18.9-6.7,24.4c-2.3,5.5-7.2,43.5-7.2,43.5
				c-6.8,9.9-14.3,19.2-22.6,27.8c8.4,0.8,19.2-17.2,19.2-17.2s-6.1,18-8.8,18.6c-2.7,0.6-14.2,13.5-17.2,14.1
				c-0.8,0.6-6.5-3.8-6.5-3.8s-13-14.3-14.9-29.3s5.3-48.2,5.3-48.2s6.7,7.7,9.9,10.5c-2.8-6-5.3-12.1-7.3-18.4
				c3.9-10,7.2-20.2,10-30.6C415.9,117.7,429.7,99.1,433.4,93.5z M412.7,215.5c-0.7,9.2-0.3,18.4,1.1,27.4c0,0.1,0,0.2,0,0.3
				c0,0.2,0,0.1,0-0.3c-0.1-2.9,2.3-20,2.9-26.7c0.6-6.9,33.2-122.9,33.2-122.9C440.5,111.5,414.2,202.5,412.7,215.5L412.7,215.5z"
				/>
		</g>
	</g>
	<path id="Path_2622" class="st9" d="M244,139.2c-13.7-13.7-35.9-13.7-49.6,0c-0.2,0.2-0.4,0.4-0.6,0.7l-2.1-2.1l-3-3
		c-16.5,16.5-16.5,43.3,0,59.8c10.1,10.1,24.6,14.4,38.6,11.5l2.2,6.4c-14,5.5-13.8,13.1-13.8,13.1l36.7-12.6c0,0-3.3-6.5-18.9-1.8
		l-2.1-6.1c6.5-2,12.4-5.6,17.2-10.4l-3-3l-2.1-2.1c0.2-0.2,0.5-0.4,0.7-0.6C257.7,175.1,257.7,152.9,244,139.2z M242.3,194.4
		c-16.4,13.1-40.4,10.4-53.5-6c-11.1-13.9-11.1-33.6,0-47.5l2.2,2.2c-11.6,15.5-8.4,37.5,7.1,49.1c12.4,9.3,29.5,9.3,41.9,0
		L242.3,194.4z M240.7,185.6c-0.2,0.2-0.4,0.4-0.7,0.6c-12.3,11.5-31.5,10.9-43-1.4c-11-11.7-11-29.9,0-41.6
		c0.2-0.2,0.4-0.5,0.6-0.7c11.9-11.9,31.2-11.9,43.1,0C252.6,154.4,252.6,173.7,240.7,185.6L240.7,185.6z"/>
	<path id="Path_2623" class="st9" d="M242.3,151.4C242.3,151.4,242.3,151.4,242.3,151.4C242.3,151.4,242.3,151.4,242.3,151.4
		L242.3,151.4z"/>
	<path id="Path_2624" class="st9" d="M189.5,161.6L189.5,161.6L189.5,161.6z"/>
	<path id="Path_2625" class="st9" d="M189.5,161.5L189.5,161.5L189.5,161.5z"/>
	<path id="Path_2626" class="st9" d="M236.4,149.4c0.1,0,0.1,0,0.1-0.6c0.8,0.6,1.5,1.2,2.2,1.9c0.1,0.1,0.6,0.4,0.8,0.5
		c0.1,0,0.2,0.1,0.2,0.1c0.1,0.1,0.3,0.1,0.4,0.2c0.1,0.1,0.2,0.1,0.3,0.2c0.1,0,0.3,0,0.4,0c0,0,0-0.1,0-0.1
		c-0.1-0.1-0.1-0.3-0.2-0.4c-0.5-0.4-1.1-0.7-1.7-1c-0.4-0.1-0.8-0.5-0.9-0.9l0.1,0c0.5,0.2,0.5,0.2,0.7,0.1c0.1,0,0.2,0.2,0.4,0.1
		c-0.1-0.6-0.3-1.1-0.7-1.5c-0.4-0.5-0.4-0.5-2.1-1.4c-0.3-0.1-0.5-0.4-0.6-0.6c-0.1-0.2,0.2-0.4,0.1-0.7c-0.1-0.2-0.2-0.5-0.3-0.8
		c0,0,0-0.1,0-0.1c0.1-0.3-1-1.4-1.3-1.7c-0.2-0.2-0.4-0.4-0.7-0.6c-0.1,0-0.1,0-0.2-0.1c-0.1,0-0.2-0.1-0.4-0.1
		c-0.1-0.1-0.2-0.2-0.3-0.2c0,0-0.8-0.4-0.9-0.4c-0.2,0-0.4-0.1-0.5-0.2c-0.1-0.1-0.2-0.1-0.4-0.2c0.1,0.1,0.2,0.1,0.3,0.2
		c-0.1-0.2-0.3-0.3-0.5-0.4c-0.1-0.1-0.2-0.1-0.2,0c0,0,0,0.1,0,0.1c0,0.1,0,0.2,0,0.2c-0.2,0-0.4,0-0.6-0.1
		c-0.2-0.1-0.1-0.4-0.3-0.6c0,0-0.1-0.1-0.1-0.1c0.3,0.1,0.3,0.1,0.4,0.1c0-0.1-0.1-0.1-0.1-0.3c0.1,0,0.2,0,0.4,0.1
		c0.5,0.2,1,0.3,1.4,0.4c0.1,0,0-0.3-0.7-0.6c-0.3-0.1-0.7-0.1-1-0.3c0,0-1.2-0.7-1.4-0.9c0.1,0,0.1,0,0.2-0.1
		c-0.9-0.7-1.9-1.2-2.9-1.5l-0.5-0.1c0,0,0,0.1,0,0.1c0,0,0-0.1,0-0.1c-0.9-0.2-1.2-0.3-1.4-0.1c0,0,0,0,0,0l-1.2-0.2
		c-0.1-0.1-0.3-0.2-0.4-0.2c-0.3-0.1-0.7,0-1-0.3c0,0,0,0,0,0c0-0.1,0-0.1,0-0.3c0-0.1,0.1-0.1,0.1-0.2c0,0,0,0-1.7-0.4
		c0.1,0,0.2,0,0.3,0c0,0,0,0-0.6-0.1c0,0,0.1,0,0.1,0l0.2,0c0.2,0,0.4,0.1,0.6,0.1c1.3,0.3,2.6,0.5,4,0.6c-0.8-0.3-1.6-0.5-2.4-0.6
		c-1.4-0.3-2.8-0.4-4.3-0.4l0,0c-0.4,0-0.8,0-1.3,0c0.1,0,0.2,0,0.4-0.1c-0.2,0-0.3,0-0.5,0l0,0l0,0c0,0,0,0,0,0c-0.1,0-0.1,0-0.2,0
		l0,0c-0.2,0-0.3,0-0.4,0c0,0,0,0,0,0l0,0l-0.1,0c-0.1,0-0.2,0-0.3,0.1c0.1,0,0.2,0,0.3,0c-0.2,0-0.5,0.1-0.7,0.2c0,0,0,0,0,0
		c0,0,0,0-0.1,0c0,0,0,0.1,0.1,0.1c0.2,0,0.5-0.1,0.7,0c-0.1,0.1-0.2,0.1-0.4,0.1c0.1,0,0.1,0,0.2,0c0,0,0,0.1,0,0.1
		c0,0,0.1,0,0.1,0c-0.1,0.2-0.3,0.2-0.5,0.3c0.1,0,0.2,0,0.2,0.1l0,0.1c-0.7,0.3-0.7,0.3-0.7,0.4s0.1,0,0.3,0
		c-0.1,0-0.3,0.1-0.4,0.1c0,0.1,0,0.1,0,0.2c-0.5,0.1-0.7,0.1-0.7,0.2c0.2,0.1,0.5,0.1,0.7-0.1c0.3,0,0.6,0,0.8,0
		c-0.1,0.1-0.1,0.2-0.2,0.3c0,0,0,0,0,0.1c0.1,0,0.1,0,0.2,0l-0.1,0c-0.2,0-0.4,0.1-0.6,0.2c-0.2,0-0.5,0.1-0.7,0.2l0,0
		c0,0.1-0.1,0.1-0.1,0.2c0,0.1,0.2,0.1,0.5,0.1c0,0,0,0.1,0,0.1c0.2,0,0.4,0,0.5,0c-0.2,0-0.3,0.1-0.5,0.1c0,0.1,0,0.1,0,0.1
		c-0.1,0.1-0.3,0.1-0.4,0.3c-0.1,0.1-0.1,0.3-0.3,0.3c0,0,0,0-0.1,0c-0.4,0.1-0.8,0-1.2,0.1c-0.5,0.1-0.5,0.1-0.5,0.2
		c-0.1,0.1,0,0.3-0.2,0.3c-0.2,0.1-0.5,0.1-0.8,0.1c-0.3,0.1-0.5,0.2-0.8,0.3c0,0,0,0,0,0c0,0,0.1,0.1,0.1,0.1
		c-0.5,0.2-1,0.3-1.4,0.5c-0.1,0-0.1,0-0.3,0.3l0,0l0,0c0.1,0.1,0.2,0.1,0.8,0c0.1,0.3,0.7,0,0.7,0c0,0,0-0.1,0-0.1
		c0.7-0.5,0.7-0.5,0.6-0.5c0.2-0.1,0.4-0.1,0.5-0.2l0,0l0,0l0,0l0,0l0,0l0.1-0.1l0,0l0,0c0.2,0,0.3,0,0.5,0c0.1,0.2,0.1,0.3,0.2,0.5
		c0,0.2-0.2,0.2-0.2,0.3c0.2,0.4,0.2,0.4,0.2,0.4l0,0l0,0c0,0.1,0.2,0.3,0.7,0.2c0.2,0,0.2,0,0.2,0c0,0,0,0,0,0l-0.2,0.1
		c0,0.2-0.2,0.2-0.2,0.4c0.1,0.2,0.4,0.2,1,0.1c-0.2,0.1-0.4,0.1-0.5,0.3c-0.1,0.2,0.2,0.2,0.3,0.3c-0.5,0-0.6,0.1-0.7,0.1
		c-0.6-0.5-1.5-0.5-2.1,0.1c-0.1,0.1-0.1,0.2-0.2,0.3c-0.2-0.1-0.7,0-0.7,0.1c0,0.3,0.1,0.6,0,0.9c-0.1,0.4,0,0.8,0.3,1
		c0.1,0.1,0.2,0.2,0.4,0.2c0,0.1,0,0.2,0,0.3l0,0c0.1,0.2,0.3,0.2,0.6,0.2c0.8-0.2,1-0.2,1.1-0.4c0.1,0.1,0.2,0.3,0.3,0.4
		c0.1,0.1,0.2,0.1,0.3,0.2l0,0c-0.3,0-0.3,0.1-0.3,0.3c0.2,0.1,0.3,0.2,0.5,0.2c-0.2-0.1-0.3-0.1-0.5-0.2c0,0.1,0,0.2-0.1,0.3
		l-0.5-0.2c-0.1,0-0.4,0.2-0.3,0.3c0,0,0.2,0.3,0.7,0.1c0,0.1,0,0.1,0,0.3c0,0,0,0.1-0.3,0.1c-0.3,0-0.4,0.3-0.4,0.4
		c0,0.3,0.7,0,0.6,0.4c0,0-0.2,0.5-0.5,0.4c-0.5-0.3-1.1-0.3-1.6,0c-0.2,0.3-0.5,0.5-0.9,0.5c-0.3,0-0.5,0.1-0.7,0.3
		c-0.2,0.2-0.3,0.4-0.5,0.6c-0.1,0.1,0,0.3,0,0.5c-0.4,0.5,0.1,2.3,0.2,2.9c0.1,0.3,0.2,0.7,0.2,1.1c0,0.1,0,0.2,0,0.3
		c0,0.3,0,0.5,0,0.8c0,0,0.9,1.3,1.2,1.2c0.2,0,0.4-0.1,0.5-0.3c0-0.1,0.1-0.2,0.1-0.3c0-0.3,0-0.4,0.3-0.4c0.4,0.1,0.7,0.5,1.2,0.4
		c0.1,0,0.2-0.1,0.2-0.2c0.2-0.4-0.1-1.5-0.4-1.8c-1.4-1.3-1.4-1.3-1.1-1.6c0.2,0.3,0.5,0.6,0.9,0.9c0.1,0.1,0.2,0,0.9-0.2
		c0.2,0.3,0.2,0.3,0.5,0.4c0.1,0.3-0.1,0.5,0,0.8c0.1,0.2,0.3,0.5,0.3,0.8c0,0,0,0,0,0.1c0,0.1,0,0.2-0.1,0.2l0,0
		c-0.2,0.3-0.2,0.7-0.5,0.9l0,0l0,0c-0.7,0.7-0.8,0.5-0.9,0.2c0,0-0.5-0.8-0.9-0.3c-0.1,0.1-0.1,0.4,0.1,0.6l0.4,0.4c0,0,0,0,0,0
		c0.1,0,0.2,0.1,0.3,0.3c0,0.1,0,0.1,0,0.2l0,0c-0.2,0.3-0.3,0.6-0.2,0.9c0.2,0.6,0.2,0.6,0.1,0.6l0.3-0.2c0,0,0,0,0,0
		c-0.1,0.1-0.2,0.2-0.3,0.3c0,0,0,0.1,0,0.1c-0.1,0.2,0.1,0.5,0.1,0.7c-0.1,0.2-0.3,0.3-0.3,0.5c0,0.1,0,0.2,0.1,0.3
		c-0.3,0.3-0.4,0.3-0.4,0.4s0.3,0.3,0.5,0.3c1,0,1.1,0.2,1.5,0.9c-0.7,0.6-1.1,0.9-1.2,1.1c-0.1,0.2-0.1,0.2-0.1,0.2
		c0,0.1,1.4,1.8,1.7,1.8c0.1,0,0.3,0,0.4,0c0.3,0,0.4-0.2,0.7-0.6l0,0c0.8-1-0.2-1.9-0.2-2.8c0-0.7,0-0.7,0.2-0.8
		c0.2-0.1,0.2-0.1,0.3-0.7l0.1-0.3c0.1,0,0.2,0.1,0.3,0.1c0.6,0,1.3-0.1,1.9-0.2c0.4,0,0.5,0.5,0.9,0.4c0.5-0.1-0.1-1.1-0.1-1.1
		c-0.7-0.7-1.6,0.5-2.2-0.2c0.1-0.3,0.1-0.3,1.6-0.4c0.1,0,0.1,0,0.2,0c0.2,0.1,0.4,0.3,0.6,0.3c0.2,0,0.6-0.3,0.8,0
		c0.2,0.3,0.3,0.4,0.4,0.3c0.2-0.1,0.3-0.2,0.3-0.4c0.1-0.4-0.5-0.6-0.5-1c0.7-0.4,1.6,1,2.1,0.2c0-0.1,0.1-0.2,0.1-0.3
		c0-0.3,0-0.4,0.7-1.1c0.7,0.1,1.2,1.2,1.4,1.9c-0.2,0.1-0.4,0.1-0.6,0.2c-0.2,0.1,0.2,0.5-0.1,0.7c-0.2,0.1-0.5,0.2-0.7,0.4
		c-0.1,0.1-0.3,0.2-0.5,0.3c-0.8,0.2-1.5,0.4-1,1.1c0.3,0.3,0.2,0.6-0.2,0.8c0,0-1.9,0.5-2.1,0.5c-0.3,0-0.4-0.1-0.6-0.5
		c-0.1-0.3-0.2-0.5-0.4-0.4c-0.2,0.1-0.4,0.3-0.5,0.5c-0.3,0.4-0.7,0.8-1,1.2c-0.2,0.4-0.4,0.9-0.5,1.3c-0.2,0.4-0.9,0.2-0.9,0.8
		l0,0.2l0.1,1c0.2,0.8,1,1.4,0.7,2.3c-0.1,0.4-0.1,0.5,0.3,2c0.1,0.4,0.4,0.5,0.6,0.8s0.6,0.5,0.8,0.8c0.2,0.3,0.3,0.8,0.6,1.1
		c0.2,0.2,0.8,0.8,1.1,0.8c0.7-0.1,0.7-0.1,1,0c0.5,0.2,0.5,0.2,0.6,0.3c0.8,0.1,1.6,0,2.4-0.2c0,0,0.1,0,0.1-0.1
		c0.1-0.1,0.1-0.1,0.1-0.2c0-0.1,0.1-0.2,0.1-0.4c0.2-0.2,0.5-0.2,0.7-0.5l0.5-1.2c0-0.2,0.2-0.4,0.4-0.5c0.3-0.1,0.5,0.1,0.8,0
		c0.3,0,0.4-0.3,0.5-0.5c0-0.1,0.1-0.1,0.2-0.1c0.1,0,0.2,0,0.3,0c0,0,0.9,0.8,0.9,1c0,0.2,0,0.4,0.2,0.5c0.8,0.6,1.8,0.4,2.7,0.8
		c1.1,0.5,0.5,2.5,2.1,2.6c0.7,0.1,1.3,0.4,1.9,0.7l1.9,1.1c0.2,0,0.5,0,0.6-0.2c0.5-0.6,0.9-1.2,1.2-1.8c0.3-1.5-0.1-3.1-0.9-4.4
		c-0.1,0-0.1-0.1-0.1-0.2c0-0.5,0.2-1,0.2-1.4c0-0.6,0-0.6-0.4-1.5c-0.4-0.8-1.6-0.5-2-1.3l-0.5-1.1c-0.1-0.8-0.1-1.5,0-2.3
		c0-0.2,0-0.4,0-0.6c-0.3-0.8-0.6-1.7-1-2.5c-0.1,0.1-0.2,0.2-0.3,0.3l0,0c0.1-0.1,0.2-0.2,0.3-0.3c-0.1-0.2-0.1-0.4-0.2-0.5
		c0-0.1-0.1-0.2-0.1-0.2c-0.1-0.1-0.1-0.1-0.2-0.1c-0.2,0-0.3,0.2-0.4,0.5c-0.1,0.6-0.5,1.1-1,1.4c-0.3,0-0.5-0.3-0.8-0.3
		c-0.3-0.1-0.6,0.2-1,0.1c-0.1,0-0.1-0.1-0.2-0.1c-0.3-0.2-0.7-0.1-1-0.3s-0.7-0.3-1-0.5c-0.7-0.4-1.6-0.5-2.3-0.9
		c0,0-0.3-0.2-0.1-0.4c0.3-0.2,0.7-0.1,1,0.2c0.1,0.1,0.3,0.2,0.5,0.2c0.8,0.3,1.5,0.5,2.3,0.6c0.2,0,0.3,0,0.5,0.1
		c0.2,0,0.4,0.1,0.6,0.2c0.4,0.3,0.9,0.5,1.4,0.6c0.3-0.6,0.4-1.3,0.5-1.9c0-0.1,0-0.1,0-0.2l0-0.1c0.1-0.6,0.1-1.2,0.1-1.8
		l-0.2-0.9c-0.1-0.2-0.2-0.3-0.3-0.5c0-0.2-0.1-0.5-0.2-0.7c0-0.1-0.1-0.1-0.2-0.1c-0.1,0-0.2,0.1-0.3,0.1c-0.2,0-0.5-0.1-0.7-0.1
		c-0.7,0-0.8,0.2-0.8,0.2c-0.1,0.3,0.2,0.5,0,0.8c-0.1,0.2-0.3,0.2-0.6,0.1c-0.6-0.1-0.6-0.1-0.8-0.1c-0.3,0.1-0.7,0-0.9-0.3
		c0-0.1,0-0.2,0.1-0.3c0.1,0,0.1,0,0.2,0c0.2,0.1,0.5,0.1,0.8,0c0.2,0,0.3-0.1,0.5-0.2c0.2-0.1,0.5-0.3,0.6-0.5
		c0.2-0.4,0.6-0.1,0.9-0.3c0.2-0.1,0.6-0.4,0.6-0.4c0,0,0.1-0.1,0.1-0.1c0.1-0.1,0-0.3,0.1-0.4c0.1-0.1,0.3-0.1,0.3-0.2
		c0.1-0.2,0.1-0.4,0.1-0.6c0.3,0,0.5,0.2,0.8,0.2c0.3,0,0.2,0,0.4-0.3c0.4,0.4,0.5,0.4,0.9-0.1c0.7,0.6,1.5,1.1,2.3,1.5
		c0.6,0.3,1.2,0.5,1.8,0.7c0.2,0.1,0.2,0.1,0.3,0c0.1-0.1,0-0.2,0-0.3c0-0.1-0.1-0.1-0.1-0.1c0,0,0,0,0,0c-0.1-0.2-0.3-0.4-0.4-0.5
		c0,0-1-1.2-1.1-1.3c-0.2-0.5-0.4-1.1-0.5-1.6c-0.2-0.5-0.4-1-0.6-1.5c0-0.2,0.2-0.4,0.2-0.6l0,0c0.3,0.1,0.6-0.1,0.8,0
		c0.3,0.1,0.6,0.3,0.8,0.5C236.1,149.3,236.3,149.4,236.4,149.4z M210.9,145.3L210.9,145.3l-0.1,0.1c0-0.1,0-0.1,0-0.2L210.9,145.3
		L210.9,145.3L210.9,145.3L210.9,145.3L210.9,145.3C210.9,145.2,210.9,145.2,210.9,145.3z M214.7,142.7c-0.1,0.1-0.2,0.2-0.3,0.3
		c0.1,0.1,0.2,0.2,0.3,0.3c-0.8-0.2-1.6-0.3-2.2-0.4c0-0.1,0-0.1-0.1-0.2c0.4,0.2,1.7,0.4,1.8,0.1
		C214.4,142.7,214.4,142.6,214.7,142.7C214.7,142.6,214.7,142.7,214.7,142.7z"/>
	<path id="Path_2627" class="st9" d="M216.6,134.8c-0.1,0-0.2,0-0.3,0l0,0L216.6,134.8L216.6,134.8z"/>
	<path id="Path_2628" class="st9" d="M189.5,166.4L189.5,166.4C189.5,166.4,189.5,166.3,189.5,166.4
		C189.5,166.3,189.5,166.3,189.5,166.4z"/>
	<path id="Path_2629" class="st9" d="M223.1,190.2c0.1-0.5,0.1-0.5-0.8-0.6c0.1-0.1,0.3-0.2,0.4-0.3c-0.1-0.2-0.2-0.4-0.3-0.6
		c0-0.1,0-0.2,0-0.3c-0.4-0.3-0.8-0.6-1.2-0.8c0.1-0.6,0.8-0.9,0.6-1.6l-2.5-3.3c-1.6-1.4-5.4,0.5-5.5,0.5c-0.2-0.4-0.5-1.2-6-1
		c-0.3,0.3-0.3,0.3-1.4,0.5c0,0.1,0,0.2,0,0.2c-0.2,0-0.3,0.1-0.5,0.1c-0.2,0.8-0.2,0.8-0.3,1c-1.1,0-1.7-1.2-2.7-1.2
		c-0.9-0.1-1.1-1.3-2.1-1.4c-0.2,0.2-0.2,0.2,0.1,1c-0.1,0-0.1,0-0.2,0.1c-1.4-0.6-2.4-1.8-2.7-3.3c0.3-0.1,0.3-0.1,0.7,0.1
		c0.1-0.1,0.2-0.3,0.2-0.5c0.5-0.3,0.5-0.3,2.2,1.2c0.1-0.1,0.1-0.1,0.2-0.2c0-0.1-0.1-0.2-0.1-0.3c-0.3-0.8-1.2-1.1-1.5-1.9
		c-0.2-0.7,0.4-1.4,0-2.1c-0.7-1.1,0.1-2.3-0.2-3.4c0.2,0,0.4,0,0.5,0c0.2-0.2,0.9-1.5,0.2-2c-0.1,0.1-0.2,0.3-0.2,0.4
		c-0.8-0.3-0.9-1-0.7-1.2s0.2-0.2,0.9-1.6c-0.9-1-1.8-2-2.9-2.9c-0.1,0.3-0.2,0.6-0.4,0.9c-0.3-0.6-0.6-1.1-1-1.5
		c-1.5,0.4-0.5,3.7,0,5.1c-1.8-1.6-1.8-1.6-1.9-1.6c-0.4-1.1-0.4-2.4-0.2-3.5l0.1,0c0,0.3,0,0.5,0.2,0.6c0.1,0,0.1,0,0.3-0.1
		c0.1,0,0.1,0,0.1-0.1c0.1-0.1,0.1-0.3,0.1-0.5c0,0,0,0,0,0c0.2-0.1,0.3-0.2,0.5-0.3c0,0,0,0,0,0c0.1-0.1,0.3-0.2,0.4-0.2
		c0.4,0.1,0.4,0.6,0.8,0.7c0.1,0,0.2,0,0.3,0c0.1-0.1,0-0.4,0.2-0.5l0,0c0.3-0.2-0.1-1.1-0.3-1.2c-0.1-0.1-0.2-0.3-0.1-0.4
		c0.2,0,0.2,0.5,0.4,0.3c0.2-0.2,0.2-0.5,0.2-0.8c0-0.3-0.1-0.3-0.1-0.4c-0.1-0.1-0.3-0.1-0.4-0.2c0,0,0,0-0.3,0
		c-0.1,0-0.2-0.1-0.2-0.3c-0.1-0.4-0.2-0.5-0.8-0.7c-0.1,0-0.1,0-0.2-0.4c0,0-0.3-0.5-0.3-0.6c-0.1-0.1-0.3-0.1-0.4-0.1
		c0,0,0,0-0.1,0c0,0,0.1,0,0.1,0c0.4-0.4,0.5-1,0.4-1.6c0-0.1,0-0.3,0.1-0.4c0.1-0.3,0.2-0.6,0.3-0.9c0.1-0.2,0-0.4,0.2-0.6
		c0.5-0.7,0.5-0.7,0.5-0.8c0.1-0.3,0.2-0.7,0.3-1c0-0.2,0.2-0.2,0.2-0.4c0-0.1,0-0.2,0.1-0.2c0-0.2,0-0.2-0.1-0.3
		c-0.1,0-0.1-0.1-0.1-0.2l0,0c-0.1,0.1-0.2,0.2-0.4,0.2c-0.1,0-0.1,0-0.3,0.3c-0.1,0-0.1,0.1-0.2,0.2c0,0-0.1-0.1-0.1,0
		c0,0-0.1,0.2-0.1,0.3c0,0,0,0,0,0c-0.1-0.3-0.3,0.1-0.3,0.1c0,0.1-0.1,0.2-0.1,0.3c0,0-0.1-0.1-0.1-0.1c-0.2,0.2-0.4,0.6-0.4,0.9
		c0,0.2,0.3,0.5,0.3,0.5s0.1-0.1,0.1-0.1c0.1-0.1,0.1-0.2,0.2-0.2c0,0,0,0.1,0,0.2c-0.1,0.2-0.1,0.4-0.2,0.5c-0.1,0-0.2-0.1-0.2,0
		c-0.1,0.2-0.1,0.4-0.1,0.6c0,0.1,0,0.2-0.1,0.2l-0.1,0c0-0.1,0.1-0.2,0.1-0.3c0.1-0.4,0.1-1.1-0.1-1.1l0,0c0,0,0,0-0.1,0
		c0,0-0.1,0.1-0.3,1c0,0,0,0.1,0,0.2c-0.2,0-0.4-0.1-0.6,0c0,0,0,0,0-0.1c0-0.1,0-0.1,0-0.2c0,0,0,0-0.1,0c-0.1,0-0.1,0.2-0.1,0.3
		c-0.1,0-0.2,0.1-0.4,0.2c0,0,0,0,0,0 M192.2,156.6c-0.1,0-0.1,0.1-0.1,0.2c0,0-0.1,0-0.1,0c-0.2,0.2-0.3,0.4-0.4,0.6
		c-0.2,0.2-0.4,0.7-0.4,0.7c0,0.2,0,0.4,0,0.5l0,0c0,0,0,0,0.1-0.1l0,0c0,0.1,0,0.2,0,0.3c0.1-0.2,0.2-0.3,0.2-0.5
		c0-0.1,0-0.2,0-0.2l0.1-0.1c0,0,0,0.1,0,0.1c-0.1,0.1-0.1,0.3-0.1,0.4c0,0.2,0,0.3,0,0.5c-0.1,0.1-0.2,0.1-0.3,0.2
		c0-0.1,0-0.1-0.1-0.2s-0.2,0.3-0.2,0.6c-0.1,0.2-0.1,0.5-0.1,0.7c0,0.2,0,0.3,0,0.5l0,0c-0.1,0.1-0.1,0.1-0.2,0.2c0,0,0-0.1,0-0.1
		c0,0.1-0.1,0.1-0.1,0.2l-0.2,0.1c0,0.1-0.1,0.2-0.1,0.3c0-0.4-0.1-0.7-0.2-1.1c0-0.1,0-0.1,0-0.2c0.1-0.6,0-0.6,0-0.7
		c0-0.1,0,0,0,0l0,0l0-0.4c-0.1,0.2-0.2,0.4-0.3,1.6l0,0.1l0,0.4l0,0l0,0.1l0,0.1l0,0l0,0l0,0.2l0,0l0,0.3l0,0.1c0,0.1,0,0.2,0,0.2
		l0,0.1l0,0.2c0,0,0,0,0,0l0,0c0,0.1,0,0.2,0,0.2c0,0.1,0,0.2,0,0.2c0,0,0,0,0,0.1c0,0.6,0,1.1,0,1.7c0,0.5,0,0.9,0.1,1.4l0,0
		c0,0.1,0,0.2,0,0.4l0,0c0,0,0,0,0,0l0,0c0,0,0,0,0,0.1c0,0.4,0.1,0.4,0.1,0.4l0-0.1c0,0,0,0,0,0c0-0.1,0-0.5-0.1-0.5
		c-0.1-0.1-0.1-0.2-0.1-0.3c0-0.3,0-0.5,0-0.8c1.9,7.3,3.5,13.5,7.7,16.1c-0.1-0.4-0.3-0.7-0.6-0.9c2.3,2.5,2.6,2.6,4.3,3.1
		c0.6-0.6,3,0.8,3,0.8c0.9,0.7,2.1,0.2,3,0.8s1.1,1.8,2,2.4c0.1,0.1,0.2,0.1,0.2,0.1c2.5,1.1,5.3,1.2,7.9,2.2c3,1.4,6.4,1.8,9.6,1
		c0.2-0.1,0.2-0.1,0.2-0.1c0.1,0,0.2-0.1,0.2-0.1c-0.1,0-0.2-0.1-0.4,0c-1.3,0.4-2.7,0.1-3.7-0.7L192.2,156.6z M195.2,161.8
		C195.2,161.8,195.3,161.8,195.2,161.8l0.5,0.6c0,0.1-0.1,0.2-0.2,0.3C195.5,162.3,195.4,162,195.2,161.8
		C195.2,161.7,195.2,161.7,195.2,161.8z M193.4,159.3c0,0,0.1,0,0.1,0c0,0.1-0.1,0.1-0.1,0.1C193.5,159.4,193.5,159.3,193.4,159.3z
		 M193.9,161c0.1,0,0.2,0,0.2,0c0.1,0,0.2,0.3,0.3,0.2c0.2-0.3,0.3,0,0.3,0.2c0,0,0.1,0.1,0.1,0.1c-0.3-0.2-0.8-0.3-1.2-0.3
		C193.8,161.1,193.8,161.1,193.9,161L193.9,161z M193.5,161.2C193.5,161.2,193.5,161.2,193.5,161.2c0,0.1,0,0.1,0,0.1
		c0,0-0.1,0-0.1,0C193.4,161.2,193.5,161.2,193.5,161.2L193.5,161.2z"/>
	<path id="Path_2630" class="st9" d="M189.5,161.4L189.5,161.4L189.5,161.4L189.5,161.4z"/>
	<path id="Path_2631" class="st9" d="M196,153.7c-0.1,0.3-0.2,0.5-0.1,0.8c0,0.7,0,0.7-0.2,0.9c-0.5,0.5-0.5,0.7-0.5,0.8
		c0,0.1,0,0.2,0.1,0.2c0.1,0.2,0.2,0.4,0.3,0.6c0,0.2,0.1,0.4,0.4,0.2l0,0c0.2-0.2,0.3-0.4,0.5-0.6c0.1,0,0.3,0.1,0.4,0.3
		c0.1,0.3,0.2,0.5,0.3,0.7c0.1,0.2,0,0.5,0.2,0.8c0.1,0.1,0.3,0,0.4,0.1c0,0,0,0.1,0,0.2c-0.1,0.2,0,0.4,0.3,0.6
		c-0.1,0.2-0.1,0.4,0,0.6c-0.1,0.6,0,1.3,0.4,1.8c0.4,0.2,0.5,0.6,0.8,0.9c0,0,0.5,0.6,0.7,0.2c0-0.1,0.1-0.1,0.2-0.1
		c0.4,0.1,0.5,0,0.5-0.1c0.3-0.3-0.1-1.3-0.2-1.4c0-0.1-0.2-1.5,0.2-1.9c0.2-0.1,0.2-0.1,0.4-1c0.1-0.5,0.5-0.7,0.7-1.1
		c0.1-0.1,0.2-0.6,0.3-0.6c0-0.1-0.2-0.7-0.3-0.7c-0.2,0-0.1,0-0.4,0.2c-0.1,0.1-0.2,0.1-0.4-0.1c0.1-0.2,0.1-0.2,0.5-0.5l0,0
		c0,0,0-0.1,0-0.1c-0.1-0.2-0.5-0.2-0.4-0.5s0.5,0,0.6-0.3c0-0.1,0-0.1-0.2-1c0-0.1-0.1-0.3-0.1-0.4c0-0.1,0-0.2,0-0.3
		c-0.1-0.4-0.4-0.7-0.5-1.2c-0.1-0.4,0.3-0.7,0.2-1.2c0-0.1-0.1-0.2-0.2-0.3c-0.3,0.1-0.6,0.4-0.7,0.8c0,0.2,0,0.2-0.2,0.4
		c0,0,0,0,0,0c0-0.3,0.2-0.6,0.1-0.9c-0.2-0.2-0.4-0.4-0.5,0.1l0,0c-0.1-0.2-0.1-0.4-0.6-0.1c0,0-0.1,0-0.1,0.1
		c-0.3,0.3-0.4,0.6-0.4,1c-0.2-0.2-0.2-0.2-0.2-0.2c0,0.1,0,0.3,0,0.4c-0.1-0.1-0.4,0-0.2,0.7l0,0c-0.1-0.1-0.1-0.2-0.3-0.2
		c-0.1,0-0.1,0-0.2,0.6c0,0,0,0,0,0l0,0l-0.1,0c0-0.1,0-0.2-0.1-0.3l-0.1,0c-0.1,0.2-0.3,0.4-0.5,0.5
		C196.2,153.5,196.1,153.6,196,153.7z"/>
	<path id="Path_2632" class="st9" d="M224.2,136.6c0.2,0.1,0.4,0.2,0.6,0.2c0.4,0.1,0.7,0.1,1.1,0.2c0.2,0,0.4,0.1,0.6,0.2
		c0,0,0.8,0.2,0.9,0.2c0,0,0,0,0,0c0,0-0.1-0.1-1.2-0.5c-0.2-0.1-0.2-0.1-0.8-0.2C225.2,136.6,224.2,136.4,224.2,136.6
		C224.2,136.5,224.2,136.6,224.2,136.6z"/>
	<path id="Path_2633" class="st9" d="M227.2,190.3c-0.1,0-0.3,0.1-0.4,0.2c0,0,0,0,0,0c0.1,0,0.1,0,0.2,0c0.1,0,0.2,0,0.2-0.1
		c0,0,0,0,0,0c0.1,0,0.1,0,0.2-0.1C227.4,190.3,227.3,190.3,227.2,190.3z"/>
	<path id="Path_2634" class="st9" d="M236.9,146.5c-0.2-0.5-0.2-0.5-0.3-0.5c0,0-0.2-0.2-0.3,0l0,0c0,0.2,0.1,0.4,0.3,0.5
		C236.8,146.6,236.8,146.5,236.9,146.5z"/>
	<path id="Path_2635" class="st9" d="M193.2,156.1c0,0,0.1-0.5,0-0.5c-0.1,0.1-0.1,0.2-0.1,0.3C193,156.1,193,156.2,193.2,156.1
		C193.1,156.2,193.1,156.3,193.2,156.1z"/>
	<path id="Path_2636" class="st9" d="M194.7,164.9c0,0.1,0.1,0.5,0.3,0.3c0-0.1,0-0.1,0-0.2c0-0.3-0.1-0.3-0.2-0.3
		C194.8,164.8,194.7,164.9,194.7,164.9z"/>
	<path id="Path_2637" class="st10" d="M725,141.8c0,0,0,0.1-0.1,0.1c-0.7,1.2,0.4,3.2,2.5,4.4c2.1,1.2,4.4,1.2,5.1,0
		c0,0,0-0.1,0-0.1L725,141.8z"/>
	<path id="Path_2638" class="st10" d="M761.6,87.5l3,1.8l0.4,0.1c1.4-2.9,4-10.8,4-10.8l-0.1-0.1c0.5-1.7,1.3-5.2,0.6-5.6
		c-1-0.6-3.4,2-4.5,3.4l-0.2-0.2c0,0-4.9,6.1-6.8,9.1c0.1,0.2,0.2,0.3,0.4,0.4L761.6,87.5z M769.1,73.7c0.6,0.4-0.2,3.4-0.5,4.6
		c-0.6-0.2-1.6-0.6-1.8-0.8l0,0c-0.4-0.3-0.9-0.6-1.3-1C766.2,75.6,768.3,73.3,769.1,73.7L769.1,73.7z"/>
	<path id="Path_2639" class="st10" d="M742.7,110.9l-16.3,28.3l2.4,1.4l13.1-22.6c0.3-0.4,0.9-0.6,1.4-0.5c0.8,0,1.6,0.5,2,1.2
		c0.3,0.4,0.4,1,0.2,1.5l-13.1,22.6l1.8,1.1l30.3-52.4l-7.9-4.5L742.7,110.9z"/>
	<path id="Path_2640" class="st10" d="M782.5,81.5l-41.9,72.4l60.5-17.4L782.5,81.5z M774.2,112.9l-6.5-3.8l0.8-1.4l6.5,3.8
		L774.2,112.9z M769.7,115.6l-0.6,1l-4.3-2.5l0.6-1L769.7,115.6z M766.3,111.6l0.6-1l4.3,2.5l-0.6,1L766.3,111.6z M769.9,105.1
		l4.3,2.5l-0.6,1l-4.3-2.5L769.9,105.1z M770.8,103.5l0.6-1l4.3,2.5l-0.6,1L770.8,103.5z M778.7,104.9l-6.5-3.8l0.8-1.4l6.5,3.8
		L778.7,104.9z M778.9,89l4.3,2.5l-0.6,1l-4.3-2.5L778.9,89z M777.5,91.6l6.5,3.8l-0.8,1.4l-6.5-3.8L777.5,91.6z M780.2,96.9l-0.6,1
		l-4.3-2.5l0.6-1L780.2,96.9z M774.4,97l4.3,2.5l-0.6,1l-4.3-2.5L774.4,97z M770.3,119.4l-0.8,1.5l-6.5-3.8l0.8-1.4L770.3,119.4z
		 M762.1,118.5l4.3,2.5l-0.6,1l-4.3-2.5L762.1,118.5z M760.6,121.1l4.3,2.5l-0.6,1l-4.3-2.5L760.6,121.1z M765.7,127.5l-0.8,1.4
		l-6.5-3.7l0.8-1.4L765.7,127.5z M757.6,126.5l4.3,2.5l-0.6,1l-4.3-2.5L757.6,126.5z M756.1,129.1l4.3,2.5l-0.6,1l-4.3-2.5
		L756.1,129.1z M754.7,131.8l6.5,3.8l-0.8,1.4l-6.5-3.8L754.7,131.8z M753.1,134.6l4.3,2.5l-0.6,1l-4.3-2.5L753.1,134.6z
		 M751.6,137.2l4.3,2.5l-0.6,1l-4.3-2.5L751.6,137.2z M750.8,148.8l-4.3-2.5l0.6-1l4.3,2.5L750.8,148.8z M748,143.7l0.6-1l4.3,2.5
		l-0.6,1L748,143.7z M755.9,145.1l-6.5-3.8l0.8-1.4l6.5,3.8L755.9,145.1z M779,112.5l5,15.3l-16,4.2L779,112.5z"/>
	<path id="Path_2641" class="st10" d="M750.2,79.1c0,0,0-0.2,0-0.5l2.4-9.8l0,0l0.5-4.4l-3.2,2.4c0,0-0.1-0.1-0.1-0.1l-7.7,7.5
		l0.1,0c-0.2,0.1-0.3,0.2-0.3,0.2l-12.7,22.1l-20.2,35.1l1.8,1l33.1-57.4l1,0.6l-33.1,57.4l2.6,1.5l33.1-57.4l1,0.6l-33.1,57.4
		l1.6,0.9l10.6-18.4l22.5-38.7c0,0,0-0.2,0-0.4L750.2,79.1z M749.6,77.4l-6-3.4l6.3-6.8l0,0l0.1-0.1l0-0.1c0.1,0,0.2,0.2,0.3,0.3
		l0,0.1l1.8,1c0.1,0.1,0.3,0.2,0.4,0.3c-0.1,0-0.2-0.1-0.2-0.1L749.6,77.4z"/>
	
		<rect id="Rectangle_935" x="711" y="131.8" transform="matrix(0.5 -0.866 0.866 0.5 237.5884 684.5067)" class="st10" width="1.2" height="9.4"/>
	<path id="Path_2642" class="st1" d="M903.3,174.3l2.1-3.8l-0.6-0.7c-4.1-5-9.1-9.2-14.7-12.4c-5.7-3.1-11.8-5.2-18.2-6l-0.7-0.1
		l-0.4-0.5c-4.1-5-9.1-9.2-14.7-12.4c-5.7-3.1-11.8-5.1-18.2-6l-0.9-0.1l-2.1,3.8l-1.2-0.7l-21.1,37.8l70.8,39.6l21.1-37.8
		L903.3,174.3z M868.1,154.6c-3.5,6.2-7.5,13.3-11.3,20.3c-1.2,2.1-2.3,4.2-3.5,6.2c-1.6,2.9-3.2,5.7-4.7,8.3
		c-0.1,0.2-0.2,0.4-0.3,0.6c-8-9.9-19.5-16.3-32.1-17.9c0.1-0.2,0.2-0.4,0.3-0.6c3.8-6.7,8.2-14.7,12.6-22.5
		c2.4-4.3,4.7-8.5,6.9-12.3c0.4-0.8,0.9-1.6,1.3-2.4c12.6,1.6,24.1,8,32.1,17.9C869,153,868.5,153.8,868.1,154.6z M902.1,173.6
		c-6.1,11-13.9,24.9-19.8,35.4c-8-9.9-19.5-16.3-32.1-17.9c5.9-10.5,13.6-24.4,19.8-35.4c0.4-0.8,0.9-1.6,1.3-2.4
		c12.6,1.6,24.1,8,32.1,17.9C903,172,902.6,172.8,902.1,173.6L902.1,173.6z"/>
	<path id="Path_2643" class="st1" d="M836.7,142.4c-1.1,1.9-0.1,0.2-1.1,1.9c10.3,1.3,19.6,6.6,26.2,14.6c1.1-1.9,0,0,1.1-1.9
		C856.3,149,847,143.8,836.7,142.4z"/>
	<path id="Path_2644" class="st1" d="M870.7,161.4c-1.1,1.9,0,0-1.1,1.9c10.3,1.3,19.6,6.6,26.2,14.6c1.1-1.9,0.2-0.4,1.1-1.9
		C890.3,168,881,162.8,870.7,161.4z"/>
	<path id="Path_2645" class="st1" d="M833.7,147.8c-1.1,1.9-0.1,0.2-1.1,1.9c10.3,1.3,19.6,6.6,26.2,14.6c1.1-1.9,0,0,1.1-1.9
		C853.3,154.4,844,149.1,833.7,147.8z"/>
	<path id="Path_2646" class="st1" d="M867.7,166.8c-1.1,1.9,0,0-1.1,1.9c10.3,1.3,19.6,6.6,26.2,14.6c1.1-1.9,0.2-0.4,1.1-1.9
		C887.4,173.4,878,168.1,867.7,166.8z"/>
	<path id="Path_2647" class="st1" d="M830.7,153.2c-1.1,1.9-0.1,0.2-1.1,1.9c10.3,1.3,19.6,6.6,26.2,14.6c1.1-1.9,0,0,1.1-1.9
		C850.4,159.7,841,154.5,830.7,153.2z"/>
	<path id="Path_2648" class="st1" d="M864.7,172.2c-1.1,1.9,0,0-1.1,1.9c10.3,1.3,19.6,6.6,26.2,14.6c1.1-1.9,0.2-0.4,1.1-1.9
		C884.4,178.7,875,173.5,864.7,172.2z"/>
	<path id="Path_2649" class="st1" d="M827.7,158.5c-1.1,1.9-0.1,0.2-1.1,1.9c10.3,1.3,19.6,6.6,26.2,14.6c1.1-1.9,0,0,1.1-1.9
		C847.4,165.1,838,159.9,827.7,158.5z"/>
	<path id="Path_2650" class="st1" d="M861.8,177.5c-1.1,1.9,0,0-1.1,1.9c10.3,1.3,19.6,6.6,26.2,14.6c1.1-1.9,0.2-0.4,1.1-1.9
		C881.4,184.1,872,178.9,861.8,177.5z"/>
	<path id="Path_2651" class="st1" d="M824.8,163.9c-1.1,1.9-0.1,0.2-1.1,1.9c10.3,1.3,19.6,6.6,26.2,14.6c1.1-1.9,0,0,1.1-1.9
		C844.4,170.5,835,165.2,824.8,163.9z"/>
	<path id="Path_2652" class="st1" d="M858.8,182.9c-1.1,1.9,0,0-1.1,1.9c10.3,1.3,19.6,6.6,26.2,14.6c1.1-1.9,0.2-0.4,1.1-1.9
		C878.4,189.5,869.1,184.3,858.8,182.9z"/>
	<path id="Path_2653" class="st7" d="M489.9,72.6c-0.9,2-4.6,8.8-7.2,8.8c-2.6,0-6.3-6.8-7.3-8.8c-3.2-6.3-5.1-13.1-5.4-20.2
		c0-7.8,3.7-16.1,12.6-16.1c8.9,0,12.6,8.3,12.6,16.1C494.9,59.4,493.1,66.3,489.9,72.6z M482.6,112.9c-6.4,0-11.6-5.2-11.7-11.7
		c0-6.4,5.2-11.6,11.7-11.7c6.4,0,11.6,5.2,11.7,11.7C494.2,107.7,489,112.9,482.6,112.9L482.6,112.9z"/>
	<path id="Path_2654" class="st6" d="M152.3,198.7c4.2-1.8,6.1-6.7,4.3-10.9c-0.1-0.1-0.1-0.3-0.2-0.4c-4.3-8.9-18.4-15.3-34.5-7.4
		c-10.7,5.2-22,19.5-16,31.8c3.1,6.3,9.4,9.3,18.4,8.5c12.6-1.2,10.4,9.8,20.4,4.9c3.7-1.4,5.5-5.5,4.1-9.1c-0.1-0.4-0.3-0.7-0.5-1
		c-4.3-8.8-15.4-9.1-19.7-18c-1.1-2.2-1.6-5.7,1.1-7c2.9-1.4,4.5,1.3,5.7,3.3c3,6.1,10.5,8.6,16.6,5.6
		C152,198.9,152.2,198.8,152.3,198.7z M160,254.5c6.3-3.1,8.9-10.7,5.9-17c-3.1-6.3-10.7-8.9-17-5.9c-6.3,3.1-8.9,10.7-5.9,17
		c0,0,0,0,0,0C146,254.9,153.6,257.5,160,254.5z"/>
</g>
</svg>
