<?xml version="1.0" encoding="utf-8"?>
<!-- Generator: Adobe Illustrator 24.0.3, SVG Export Plug-In . SVG Version: 6.00 Build 0)  -->
<svg version="1.1" id="Layer_1" xmlns="http://www.w3.org/2000/svg" xmlns:xlink="http://www.w3.org/1999/xlink" x="0px" y="0px"
	 viewBox="0 0 520 317" style="enable-background:new 0 0 520 317;" xml:space="preserve">
<style type="text/css">
	.st0{fill:#1D1E50;}
</style>
<g id="Group_839" transform="translate(1832.133 499.957)">
	<g id="Group_785" transform="translate(-1832.133 -499.957)">
		<path id="Path_2796" class="st0" d="M97.7,202.3c-2.6,0-5.3,0-8-0.1h-0.6c-25-0.7-49.8-3.9-74.2-9.5c-7.6-1.9-12.2-9.5-10.3-17.1
			c0,0,0,0,0,0c1.9-7.6,9.5-12.2,17.1-10.3c0,0,0,0,0,0c17.2,3.9,34.7,6.5,52.3,7.8c-2.9-74.6,27.7-100.7,54-109.3
			c41.2-13.6,71.5,11.1,82.2,39.8c13.7,33.6-2.5,72-36.1,85.6c-0.2,0.1-0.5,0.2-0.7,0.3C149.3,198.7,123.6,203,97.7,202.3z
			 M150.5,88.3c-4.6,0-9.2,0.8-13.5,2.3c-25.1,8.3-36.7,36.3-34.5,83.4c20.5,0.2,40.9-3.4,60.1-10.6c19.3-7.2,29.1-28.7,21.9-48
			c-0.2-0.6-0.5-1.3-0.8-1.9C179.1,98.8,165.8,88.7,150.5,88.3L150.5,88.3z"/>
	</g>
	<g id="Group_786" transform="translate(-1821.432 -486.003)">
		<path id="Path_2797" class="st0" d="M280.3,272.3c-4.5,0-9.1-0.1-13.7-0.3c-80-3.4-154.2-36.7-198.6-89.3c-5-6-4.3-14.9,1.7-19.9
			c6-5,14.9-4.3,19.9,1.7c39.4,46.6,106,76.2,178.2,79.2c76.9,3.2,148.3-23.4,190.8-71.1c7.3-8.2,13.8-17.1,19.2-26.7
			c3.8-6.8,12.5-9.2,19.3-5.4c6.8,3.8,9.2,12.5,5.4,19.3c-6.4,11.3-14,21.9-22.7,31.7C434.2,242.5,360.4,272.3,280.3,272.3z"/>
	</g>
	<g id="Group_787" transform="translate(-1792.876 -486.002)">
		<circle id="Ellipse_183" class="st0" cx="240.4" cy="153.3" r="14.7"/>
	</g>
	<g id="Group_788" transform="translate(-1786.925 -485.83)">
		<circle id="Ellipse_184" class="st0" cx="274" cy="154.3" r="14.7"/>
	</g>
</g>
</svg>
